HIERARCHY
ROOT Hips
{
	OFFSET 0.000000 0.000000 0.000000
	CHANNELS 6 Xposition Yposition Zposition Zrotation Yrotation Xrotation 
	JOINT LHipJoint
	{
		OFFSET 0.000000 0.000000 0.000000
		CHANNELS 3 Zrotation Yrotation Xrotation
		JOINT LeftUpLeg
		{
			OFFSET 8.178360 -10.767780 5.035740
			CHANNELS 3 Zrotation Yrotation Xrotation
			JOINT LeftLeg
			{
				OFFSET 14.688660 -40.356780 0.000000
				CHANNELS 3 Zrotation Yrotation Xrotation
				JOINT LeftFoot
				{
					OFFSET 15.373200 -42.237540 0.000000
					CHANNELS 3 Zrotation Yrotation Xrotation
					JOINT LeftToeBase
					{
						OFFSET 0.945840 -2.598660 13.935300
						CHANNELS 3 Zrotation Yrotation Xrotation
						End Site
						{
							OFFSET 0.000000 0.000000 0.000000
						}
					}
				}
			}
		}
	}
	JOINT RHipJoint
	{
		OFFSET 0.000000 0.000000 0.000000
		CHANNELS 3 Zrotation Yrotation Xrotation
		JOINT RightUpLeg
		{
			OFFSET -7.833120 -10.767780 5.035740
			CHANNELS 3 Zrotation Yrotation Xrotation
			JOINT RightLeg
			{
				OFFSET -15.255180 -41.913300 0.000000
				CHANNELS 3 Zrotation Yrotation Xrotation
				JOINT RightFoot
				{
					OFFSET -15.409560 -42.337380 0.000000
					CHANNELS 3 Zrotation Yrotation Xrotation
					JOINT RightToeBase
					{
						OFFSET -0.988380 -2.715540 14.178900
						CHANNELS 3 Zrotation Yrotation Xrotation
						End Site
						{
							OFFSET 0.000000 0.000000 0.000000
						}
					}
				}
			}
		}
	}
	JOINT LowerBack
	{
		OFFSET 0.000000 0.000000 0.000000
		CHANNELS 3 Zrotation Yrotation Xrotation
		JOINT Spine
		{
			OFFSET 0.169620 12.213540 -1.160280
			CHANNELS 3 Zrotation Yrotation Xrotation
			JOINT Spine1
			{
				OFFSET 0.340320 12.293100 -0.256500
				CHANNELS 3 Zrotation Yrotation Xrotation
				JOINT Neck
				{
					OFFSET 0.000000 0.000000 0.000000
					CHANNELS 3 Zrotation Yrotation Xrotation
					JOINT Neck1
					{
						OFFSET -0.325020 10.477440 1.032120
						CHANNELS 3 Zrotation Yrotation Xrotation
						JOINT Head
						{
							OFFSET 0.624420 10.568160 -0.743820
							CHANNELS 3 Zrotation Yrotation Xrotation
							End Site
							{
								OFFSET 0.000000 0.000000 0.000000
							}
						}
					}
				}
				JOINT LeftShoulder
				{
					OFFSET 0.000000 0.000000 0.000000
					CHANNELS 3 Zrotation Yrotation Xrotation
					JOINT LeftArm
					{
						OFFSET 20.174460 7.205340 -1.867260
						CHANNELS 3 Zrotation Yrotation Xrotation
						JOINT LeftForeArm
						{
							OFFSET 29.898000 -0.000000 -0.000000
							CHANNELS 3 Zrotation Yrotation Xrotation
							JOINT LeftHand
							{
								OFFSET 20.901360 -0.000000 -0.000000
								CHANNELS 3 Zrotation Yrotation Xrotation
								JOINT LeftFingerBase
								{
									OFFSET 0.000000 0.000000 0.000000
									CHANNELS 3 Zrotation Yrotation Xrotation
									JOINT LeftHandIndex1
									{
										OFFSET 4.291560 -0.000000 -0.000000
										CHANNELS 3 Zrotation Yrotation Xrotation
										End Site
										{
											OFFSET 0.000000 0.000000 0.000000
										}
									}
								}
								JOINT LThumb
								{
									OFFSET 0.000000 0.000000 0.000000
									CHANNELS 3 Zrotation Yrotation Xrotation
									End Site
									{
										OFFSET 0.000000 0.000000 0.000000
									}
								}
							}
						}
					}
				}
				JOINT RightShoulder
				{
					OFFSET 0.000000 0.000000 0.000000
					CHANNELS 3 Zrotation Yrotation Xrotation
					JOINT RightArm
					{
						OFFSET -18.819600 8.244300 -2.427900
						CHANNELS 3 Zrotation Yrotation Xrotation
						JOINT RightForeArm
						{
							OFFSET -31.451400 -0.000000 -0.000000
							CHANNELS 3 Zrotation Yrotation Xrotation
							JOINT RightHand
							{
								OFFSET -20.665020 -0.000000 -0.000000
								CHANNELS 3 Zrotation Yrotation Xrotation
								JOINT RightFingerBase
								{
									OFFSET 0.000000 0.000000 0.000000
									CHANNELS 3 Zrotation Yrotation Xrotation
									JOINT RightHandIndex1
									{
										OFFSET -3.735180 -0.000000 -0.000000
										CHANNELS 3 Zrotation Yrotation Xrotation
										End Site
										{
											OFFSET 0.000000 0.000000 0.000000
										}
									}
								}
								JOINT RThumb
								{
									OFFSET 0.000000 0.000000 0.000000
									CHANNELS 3 Zrotation Yrotation Xrotation
									End Site
									{
										OFFSET 0.000000 0.000000 0.000000
									}
								}
							}
						}
					}
				}
			}
		}
	}
}
MOTION
Frames:	11
Frame Time:	0.0333333
-87.644502 107.235228 83.919822 2.298385 48.515121 5.009097 -3.415320 1.358621 2.481074 -13.999912 -8.015971 -8.302933 -0.286557 7.116096 21.328878 0.139170 0.193392 -3.997708 0.052600 -1.480300 -4.071500 1.459318 -1.129549 1.144446 18.774591 4.123510 -11.038680 -2.104731 -9.895832 29.575060 -0.624124 0.491648 -7.536971 -0.088300 -1.916200 5.274100 -0.763262 -0.248728 1.249729 1.486887 -0.405706 0.001022 0.591690 -0.251979 -2.389099 -12.701704 -2.537190 -6.071129 4.258335 -1.244753 33.036291 4.724500 -2.112000 17.716000 -6.932857 -1.334130 -1.331127 -84.914339 -0.353217 19.869792 12.017483 -16.648458 -2.032839 -1.688630 -2.159698 9.760162 18.744479 21.361789 8.355700 -7.125000 0.000000 0.000000 -9.806100 54.784500 -2.373800 5.436430 1.084632 -1.113680 83.418548 -1.072690 6.622972 -13.350072 19.964740 -2.485384 0.392462 -0.245701 11.839504 -15.599187 7.938610 -2.315300 7.125000 0.000000 0.000000 7.834700 -21.599200 4.441300 
-87.623424 107.232216 83.971014 2.164290 48.513636 4.898036 -3.407339 1.361673 2.488931 -13.894719 -7.936587 -8.338516 -0.274860 7.136743 21.388255 0.155558 0.109022 -4.008197 0.053300 -1.489700 -4.097400 1.460637 -1.132018 1.147012 18.896738 4.181087 -10.937801 -2.091270 -9.871819 29.505624 -0.612803 0.433807 -7.570804 -0.080700 -1.832900 5.044000 -0.678992 -0.243013 1.325766 1.486256 -0.395645 -0.038600 0.540463 -0.243322 -2.528376 -12.672603 -2.579705 -5.870550 4.226125 -1.336271 33.022993 4.688600 -2.144900 17.663400 -6.938915 -1.308546 -1.340389 -85.033194 -0.017991 19.987290 11.988409 -16.604991 -2.021621 -1.688114 -2.166346 9.896579 18.677494 21.440309 8.351400 -7.125000 0.000000 0.000000 -9.920200 54.860100 -2.420100 5.440791 1.069300 -1.122520 83.686803 -1.547111 5.658865 -13.186871 19.728998 -2.422863 0.387197 -0.259592 12.579613 -15.607367 8.033505 -2.346100 7.125000 0.000000 0.000000 7.826100 -21.491700 4.455600 
-87.625230 107.233422 84.004746 2.225097 48.459295 4.932293 -3.403297 1.361751 2.494793 -13.930375 -7.820922 -8.340001 -0.275938 7.128808 21.368603 0.165085 0.048491 -3.980060 0.055700 -1.522400 -4.187400 1.462731 -1.132199 1.144471 18.872047 4.308413 -10.881223 -2.095194 -9.882120 29.535120 -0.591201 0.321977 -7.619896 -0.073500 -1.749400 4.813600 -0.710735 -0.231311 1.431305 1.440508 -0.378923 -0.038908 0.468334 -0.231504 -2.597797 -12.507102 -2.544242 -5.857073 4.217394 -1.326562 33.024638 4.650900 -2.112900 17.654600 -6.932855 -1.294179 -1.349232 -85.046156 0.228884 19.984130 12.067233 -16.734182 -2.052968 -1.679499 -2.169511 9.998763 18.624682 21.472236 8.334000 -7.125000 0.000000 0.000000 -10.004200 54.885200 -2.447000 5.440596 1.055546 -1.132060 83.932384 -1.896575 5.604679 -13.109479 19.613618 -2.395176 0.376692 -0.250288 12.484501 -15.234911 7.878492 -2.242500 7.125000 0.000000 0.000000 8.108800 -21.674300 4.585800 
-87.604146 107.237040 83.999322 2.185215 48.407909 4.955605 -3.404740 1.359399 2.482738 -13.923680 -7.943768 -8.356045 -0.272712 7.144407 21.408963 0.141412 0.187716 -4.009918 0.052000 -1.471400 -4.046900 1.464353 -1.129312 1.144785 18.879423 4.229389 -10.944836 -2.090083 -9.871286 29.502184 -0.605543 0.402719 -7.558870 -0.074100 -1.756400 4.832900 -0.644630 -0.165080 1.423988 1.435458 -0.286333 -0.016501 0.422514 -0.185590 -2.569163 -12.487949 -2.634526 -5.884150 4.212407 -1.461066 33.067960 4.630700 -2.162400 17.712800 -6.908372 -1.275073 -1.364884 -85.152061 0.455142 21.197210 12.322723 -17.130348 -2.160113 -1.664731 -2.266428 8.784618 18.956082 22.063622 8.708100 -7.125000 0.000000 0.000000 -9.922200 55.619600 -2.604500 5.426729 1.045517 -1.138103 84.089704 -2.294256 5.891577 -13.234364 19.785753 -2.438128 0.406265 -0.248279 12.059577 -15.940844 7.808117 -2.330900 7.125000 0.000000 0.000000 7.580300 -21.719700 4.273600 
-87.596922 107.244870 83.989086 2.159384 48.358392 4.924287 -3.403954 1.367107 2.480803 -13.924887 -8.066404 -8.296254 -0.276591 7.143746 21.402615 0.102908 0.397626 -3.985018 0.064100 -1.633800 -4.494600 1.468104 -1.128267 1.145709 18.880855 4.286148 -10.911563 -2.084495 -9.861059 29.471549 -0.613733 0.444139 -7.546402 -0.075800 -1.776400 4.888100 -0.531532 -0.133839 1.574887 1.385445 -0.233835 -0.029968 0.256402 -0.158555 -2.695287 -12.456487 -2.699664 -5.772193 4.229662 -1.592554 33.001303 4.616900 -2.204700 17.662500 -6.903164 -1.266030 -1.369980 -85.208493 0.535944 21.512222 12.433146 -17.287492 -2.205236 -1.636468 -2.269108 8.826633 18.715825 22.030171 8.573900 -7.125000 0.000000 0.000000 -10.189600 55.533900 -2.654400 5.411333 1.051122 -1.146935 84.439140 -2.697971 5.781914 -13.388386 20.020328 -2.501865 0.382080 -0.240064 12.232831 -15.365039 7.805075 -2.239200 7.125000 0.000000 0.000000 8.015500 -21.753600 4.517400 
-87.607158 107.255106 83.984268 2.242359 48.202655 4.994574 -3.407521 1.368010 2.478364 -14.000787 -8.087600 -8.264873 -0.281062 7.139148 21.387520 0.085605 0.504311 -4.047750 0.056800 -1.537400 -4.228900 1.467536 -1.125000 1.140581 18.818613 4.355844 -10.931835 -2.090182 -9.872877 29.505823 -0.598717 0.384626 -7.499543 -0.057400 -1.545500 4.251100 -0.604627 -0.134768 1.668499 1.415481 -0.234557 0.036609 0.328126 -0.163299 -2.611708 -12.616468 -2.630523 -6.057776 4.276153 -1.428252 32.879598 4.684500 -2.159100 17.653700 -6.919941 -1.286873 -1.360197 -85.649989 0.093491 20.470513 12.411730 -17.201152 -2.181390 -1.676817 -2.227639 9.874598 18.738187 21.967655 8.560600 -7.125000 0.000000 0.000000 -10.132800 55.463900 -2.622100 5.422568 1.068947 -1.144367 84.475057 -2.557903 6.051955 -13.454833 20.113353 -2.528072 0.372127 -0.243432 11.954315 -15.119229 8.083611 -2.279800 7.125000 0.000000 0.000000 8.191900 -21.471500 4.671800 
-87.614988 107.250888 83.944512 2.196765 48.073578 5.001827 -3.406684 1.362661 2.468972 -13.992987 -8.094858 -8.326930 -0.274923 7.158787 21.439278 0.071369 0.602899 -4.131228 0.056300 -1.530500 -4.209900 1.468479 -1.119484 1.135269 18.807350 4.492036 -10.970862 -2.092463 -9.874674 29.514110 -0.623914 0.522016 -7.419516 -0.095600 -1.993600 5.487900 -0.545589 -0.076326 1.743865 1.429046 -0.152074 0.094333 0.335667 -0.123089 -2.548211 -12.658831 -2.587841 -6.187450 4.274793 -1.359475 32.569361 4.684600 -2.126800 17.483200 -6.886008 -1.287031 -1.374872 -85.726770 0.152136 21.707910 12.795274 -17.769982 -2.348517 -1.549909 -2.194504 8.823467 18.141088 20.930786 7.907800 -7.125000 0.000000 0.000000 -10.349900 54.216100 -2.363500 5.416943 1.071522 -1.133225 84.435064 -2.297715 6.455051 -13.440034 20.086399 -2.521451 0.380312 -0.250405 11.576838 -15.312385 8.287222 -2.369600 7.125000 0.000000 0.000000 8.040700 -21.245600 4.625400 
-87.611976 107.255706 83.863806 2.025442 47.929337 4.843218 -3.399456 1.368815 2.470767 -13.922939 -8.051561 -8.326405 -0.272820 7.166838 21.454611 0.061160 0.671321 -4.158327 0.053900 -1.497800 -4.119700 1.468731 -1.112401 1.126733 18.885081 4.438837 -10.985715 -2.091303 -9.868225 29.499312 -0.654286 0.675123 -7.378682 -0.104300 -2.082200 5.732900 -0.352889 -0.072148 1.933528 1.461106 -0.129807 0.197421 0.297198 -0.118096 -2.440488 -12.796495 -2.564878 -6.701618 4.392507 -1.285786 32.110289 4.762400 -2.093500 17.351800 -6.856875 -1.291682 -1.388112 -85.876540 -0.020440 22.829512 13.145301 -18.290886 -2.497086 -1.602653 -2.341460 7.610154 19.153446 22.282754 8.876900 -7.125000 0.000000 0.000000 -9.853200 55.922200 -2.658700 5.411547 1.095221 -1.120038 84.290069 -1.967112 7.387886 -13.503747 20.173345 -2.546448 0.385319 -0.244659 11.104648 -15.352189 8.276241 -2.372200 7.125000 0.000000 0.000000 8.010700 -21.258300 4.605500 
-87.642696 107.281608 83.816826 1.959389 47.916496 4.933391 -3.400076 1.356504 2.451964 -13.860666 -8.057324 -8.493641 -0.274881 7.169608 21.451020 0.048263 0.731024 -4.073767 0.052300 -1.475100 -4.057200 1.471784 -1.101141 1.118397 18.920643 4.486534 -11.130819 -2.080063 -9.851153 29.445441 -0.635276 0.605732 -7.294736 -0.071700 -1.727000 4.751800 -0.316803 -0.016316 2.041594 1.453197 -0.047936 0.274294 0.257590 -0.079773 -2.338636 -12.563041 -2.602625 -7.261130 4.273575 -1.394319 31.022700 4.589600 -2.068600 16.855600 -6.820130 -1.303469 -1.394388 -85.892573 -0.204305 23.487323 13.456879 -18.741679 -2.637167 -1.545019 -2.277062 7.590896 18.864767 21.450703 8.428500 -7.125000 0.000000 0.000000 -9.811200 54.944500 -2.413400 5.405732 1.111248 -1.116413 84.382791 -1.740531 8.170795 -13.756596 20.524510 -2.640825 0.411792 -0.234484 10.786802 -16.004027 8.061305 -2.412600 7.125000 0.000000 0.000000 7.529100 -21.461100 4.288800 
-87.681846 107.312328 83.720454 1.864250 47.917263 4.920218 -3.397221 1.356354 2.431635 -13.806657 -8.200314 -8.575508 -0.271537 7.188079 21.489988 0.038738 0.774082 -4.010590 0.051700 -1.467400 -4.036000 1.475357 -1.083940 1.106306 18.961685 4.453006 -11.261013 -2.077277 -9.842902 29.426821 -0.623867 0.588917 -7.141552 -0.080400 -1.829500 5.034800 -0.100378 -0.001455 2.380852 1.403231 0.001761 0.393919 0.056213 -0.063745 -2.263160 -12.747460 -2.771635 -8.268427 4.709539 -1.646518 29.555960 4.755500 -2.097600 16.357000 -6.783757 -1.277022 -1.414936 -85.844132 -0.419264 24.395822 13.938910 -19.438239 -2.859010 -1.413059 -2.316521 7.071275 17.891592 21.475709 7.958100 -7.125000 0.000000 0.000000 -10.948500 54.779400 -2.653700 5.383348 1.182815 -1.093892 84.498395 -1.285595 8.709166 -13.983900 20.861214 -2.735952 0.395001 -0.224797 10.390570 -15.547757 8.134835 -2.359100 7.125000 0.000000 0.000000 7.870900 -21.411000 4.496100 
-87.711360 107.355690 83.559636 2.205281 47.869584 5.413454 -3.417596 1.325218 2.398814 -14.069103 -8.147847 -8.874396 -0.290305 7.155379 21.388677 0.040996 0.718937 -3.832057 0.050700 -1.453400 -3.997200 1.476265 -1.057468 1.096121 18.589918 4.521030 -11.712882 -2.108871 -9.894967 29.586905 -0.657980 0.789445 -6.937285 -0.116400 -2.199900 6.058400 -0.226467 0.038540 2.711528 1.348522 0.061692 0.413500 0.020088 -0.039129 -2.392974 -13.004227 -3.009610 -8.989565 5.115710 -2.006031 27.279943 4.856800 -2.150700 15.387200 -6.763485 -1.238034 -1.435660 -85.948437 -0.604615 24.816579 14.236279 -19.856975 -2.992199 -1.427930 -2.387693 6.808883 18.223355 22.264297 8.381700 -7.125000 0.000000 0.000000 -10.973000 55.708300 -2.908600 5.360240 1.271197 -1.070959 84.472229 -1.007983 9.076332 -14.247285 21.244731 -2.845673 0.379142 -0.223064 10.473839 -15.245846 8.275307 -2.349000 7.125000 0.000000 0.000000 8.096300 -21.280700 4.651500 
